<svg version="1.1" id="Layer_1" xmlns="http://www.w3.org/2000/svg" xmlns:xlink="http://www.w3.org/1999/xlink" x="0px" y="0px"
	 width="225px" height="60px" viewBox="0 0 225 60" enable-background="new 0 0 225 60" xml:space="preserve">
<g>
	<g>
		<path d="M97.081,11.197h0.018l2.002-5.782h0.431l-2.46,6.994l-2.433-6.994h0.431L97.081,11.197z"/>
		<path d="M80.518,17.822V0h2.236v17.822H80.518z"/>
		<path d="M111.382,17.822V0h2.236v17.822H111.382z"/>
		<path d="M142.247,17.822V0h2.236v17.822H142.247z"/>
		<g>
			<rect x="125.268" y="8.707" width="5.331" height="0.408"/>
		</g>
	</g>
	<g>
		<path d="M1.584,59.251H0.146V36.665h1.438V59.251z"/>
		<path d="M19.273,59.251h-1.648l-7.369-10.694H9.538v10.694H8.1V36.665h2.816c1.827,0,3.624,0.03,5.153,1.138
			c1.617,1.139,2.276,2.936,2.276,4.853c0,3.924-2.726,5.961-6.47,5.901L19.273,59.251z M11.366,47.209
			c1.408,0,2.816-0.06,3.954-1.048c1.078-0.869,1.587-2.217,1.587-3.565c0-1.678-0.779-3.355-2.396-4.074
			c-1.199-0.569-2.726-0.509-4.044-0.509H9.538v9.196H11.366z"/>
		<path d="M25.819,59.251h-1.438V36.665h1.438V59.251z"/>
		<path d="M42.076,40.38c-1.018-1.617-2.456-2.666-4.583-2.666c-2.426,0-4.254,1.947-4.254,4.314c0,2.367,2.247,3.355,4.074,4.224
			l4.314,2.247c1.707,1.078,2.576,2.456,2.576,4.493c0,3.745-3.415,6.561-7.069,6.561c-3.145,0-5.602-1.947-6.65-4.853l1.258-0.569
			c0.959,2.396,2.726,4.074,5.452,4.074c2.966,0,5.572-2.337,5.572-5.332c0-2.547-2.606-3.624-4.553-4.583l-4.074-2.157
			c-1.498-0.928-2.336-2.247-2.336-4.044c0-3.355,2.397-5.721,5.781-5.721c2.276,0,4.433,1.228,5.512,3.175L42.076,40.38z"/>
		<path d="M62.123,55.956h0.06l6.68-19.291H70.3L62.092,60l-8.118-23.335h1.438L62.123,55.956z"/>
		<polygon points="75.804,35.916 66.338,59.251 67.806,59.251 75.804,39.571 83.772,59.251 85.24,59.251 		"/>
		<path d="M107.368,60L88.406,39.841v19.411h-1.438V36.366l18.961,20.01v-19.71h1.438V60z"/>
		<path d="M137.375,46.251v-9.586h1.437v22.586h-1.437V47.599h-13.72v11.652h-1.438V36.665h1.438v9.586H137.375z"/>
		<path d="M145.101,38.013v8.207h9.106v1.348h-9.106v10.335h9.346v1.348h-10.784V36.665h10.784v1.348H145.101z"/>
		<path d="M170.499,59.251h-1.648l-7.369-10.694h-0.719v10.694h-1.438V36.665h2.816c1.827,0,3.624,0.03,5.152,1.138
			c1.617,1.139,2.276,2.936,2.276,4.853c0,3.924-2.726,5.961-6.47,5.901L170.499,59.251z M162.59,47.209
			c1.408,0,2.816-0.06,3.954-1.048c1.078-0.869,1.588-2.217,1.588-3.565c0-1.678-0.779-3.355-2.396-4.074
			c-1.199-0.569-2.726-0.509-4.045-0.509h-0.928v9.196H162.59z"/>
		<path d="M176.33,59.251h-1.437V36.665h3.983c1.768,0,3.475,0.12,4.882,1.318c1.378,1.168,2.038,2.876,2.038,4.643
			c0,1.618-0.63,3.415-1.887,4.464c-1.378,1.198-3.265,1.438-5.033,1.438h-2.546V59.251z M178.937,47.18
			c1.468,0,2.786-0.18,3.954-1.229c0.989-0.898,1.468-2.067,1.468-3.385c0-1.407-0.569-2.816-1.707-3.654
			c-1.139-0.869-2.576-0.898-3.954-0.898h-2.367v9.166H178.937z"/>
		<path d="M190.944,38.013v8.207h9.106v1.348h-9.106v10.335h9.346v1.348h-10.784V36.665h10.784v1.348H190.944z"/>
		<path d="M224.854,60l-18.962-20.159v19.411h-1.437V36.366l18.961,20.01v-19.71h1.438V60z"/>
	</g>
</g>
</svg>
